# xmcd CD database file generated by OrangeCD 6.5
#
# Track frame offsets:
#	150
#	21713
#	36428
#	52222
#	70060
#	82208
#	103195
#	121241
#	139130
#	149563
#	167478
#	177973
#	190532
#	203874
#	226835
#
# Disc length: 3241 seconds
#
# Revision: 2
# Processed by: cddbd v1.5.2PL0 Copyright (c) Steve Scherf et al.
# Submitted via: OrangeCD 6.5
#
DISCID=e10ca70f
DTITLE=Guy Davis - Legacy
DYEAR=2004
DGENRE=Blues
TTITLE0=Uncle Tom's Dead
TTITLE1=Pay Day
TTITLE2=Run Molly Run
TTITLE3=Come Back Baby
TTITLE4=Rolling In My Sweet Baby's Arms
TTITLE5=I Just Can't Help Loving You
TTITLE6=Drop Down Mama
TTITLE7=Things About Coming My Way
TTITLE8=Red Goose
TTITLE9=Hikin' Jerry
TTITLE10=I'm Gone
TTITLE11=See See Rider
TTITLE12=Long As You Get It Done
TTITLE13=Cypress Grove
TTITLE14=We All Need More Kindness In This World
EXTD=
EXTT0=
EXTT1=
EXTT2=
EXTT3=
EXTT4=
EXTT5=
EXTT6=
EXTT7=
EXTT8=
EXTT9=
EXTT10=
EXTT11=
EXTT12=
EXTT13=
EXTT14=
PLAYORDER=
